PathFileType	4	(X/Y/Z)	12_coords_data.trc
DataRate	CameraRate	NumFrames	NumMarkers	Units	OrigDataRate	OrigDataStartFrame	OrigNumFrames
30.0	30.0	8	21	m	30.0	22	64
Frame#	Time	THUMB_TIP	THUMB_IP	THUMB_MCP	THUMB_CMC	INDEX_TIP	INDEX_DIP	INDEX_PIP	INDEX_MCP	MIDDLE_TIP	MIDDLE_DIP	MIDDLE_PIP	MIDDLE_MCP	RING_TIP	RING_DIP	RING_PIP	RING_MCP	PINKY_TIP	PINKY_DIP	PINKY_PIP	PINKY_MCP	WRIST
X1	Y1	Z1	X2	Y2	Z2	X3	Y3	Z3	X4	Y4	Z4	X5	Y5	Z5	X6	Y6	Z6	X7	Y7	Z7	X8	Y8	Z8	X9	Y9	Z9	X10	Y10	Z10	X11	Y11	Z11	X12	Y12	Z12	X13	Y13	Z13	X14	Y14	Z14	X15	Y15	Z15	X16	Y16	Z16	X17	Y17	Z17	X18	Y18	Z18	X19	Y19	Z19	X20	Y20	Z20	X21	Y21	Z21
20	0.6999999999999968	0.5451824369397715	-0.015357246589405071	-0.12273632956871237	0.5225399285057656	-0.01758716308850805	-0.12595258270287307	0.49259090260515626	-0.018991597509398273	-0.11759175669331753	0.47546415623417027	-0.02677561463078848	-0.0771445857638468	0.5637697150718922	0.04011899075616843	-0.1564877113031501	0.5509786138081666	0.04593641346902855	-0.14506206815096767	0.5314809370325824	0.04803030462336899	-0.12933101436590227	0.5010793619546061	0.027566450800672215	-0.1076374435786512	0.5103870012568558	-0.008411817129209909	-0.11177886214565463	0.5271803384166888	-0.007340168898614441	-0.11847478606293681	0.5455956903917791	0.015207105076050054	-0.11709464188751091	0.5147803199901643	0.028277283063364633	-0.0875018840675442	0.5141770658991417	-0.02148414114064867	-0.09885237849225018	0.5312250447840915	-0.016771045834301668	-0.10233851511774225	0.5509174293284067	-0.0017500203296966221	-0.09973875306154911	0.5281464336673751	0.017637859421139157	-0.07253006493859074	0.6039630697497309	0.0073433345017772655	-0.08181686369678931	0.5875179604435192	0.004781680043184244	-0.07781732543074915	0.5671355950779307	0.0015667577436628832	-0.0739397648945746	0.5323956445606464	-0.00566865429729535	-0.06748468149819625	0.4622830810018609	-0.023011742144276925	-0.051989820119430985
21	0.7333333333333302	0.5450867177513736	-0.015363707323318265	-0.12288776758783061	0.5224337572393117	-0.01753115447329523	-0.12607297604113796	0.4925055088112439	-0.018896724891064864	-0.11763169868152196	0.47544979639260454	-0.026714915902282366	-0.07716110981497848	0.5642604482683297	0.04167201206439353	-0.15629043398293793	0.5511860388124106	0.046769717804961974	-0.1448417129381422	0.5315494686660339	0.04812552460333608	-0.12920276368277614	0.5011594073609384	0.02760970031102339	-0.10754217224395597	0.5103619113373703	-0.008334531307454651	-0.11178957134029038	0.5271508545894404	-0.007322484026579201	-0.1185057566251113	0.5456085821358824	0.015187788888543108	-0.11708820341339969	0.5148624133380283	0.02824983333297737	-0.08741997090478053	0.5141868098669455	-0.0215694392466782	-0.09894798778349427	0.5312233320343558	-0.016814729719961785	-0.10243362255436311	0.5509316655144298	-0.0018245121039283108	-0.09977750767315798	0.5282270978366117	0.017528030963897212	-0.0724882695494701	0.6040046058518905	0.007167970551217873	-0.0818008906735939	0.5875555714425569	0.004615533042406028	-0.07781161382632382	0.5671692069382583	0.001414644900478601	-0.07394347778932292	0.5324131510631583	-0.005776928526240677	-0.06752621180955859	0.4622830810018609	-0.023011742144276925	-0.051989820119430985
22	0.7666666666666633	0.5451386861045663	-0.015348274226358649	-0.12299043203839999	0.5224745040516053	-0.017476801922100993	-0.12612160142358184	0.49256695442428544	-0.018761002290879847	-0.11759462630328135	0.4754106579968488	-0.026681324169428033	-0.07718645888338814	0.5646501495801061	0.04295246120333618	-0.1560930729236532	0.551354658914179	0.04744566784629434	-0.14464575786657896	0.5316148382100626	0.04818788572099808	-0.1290958889219284	0.5012197542115346	0.027654331200570925	-0.10745915854326263	0.5103564925896558	-0.008235197399385719	-0.11181264929461865	0.5271425612270301	-0.007312466536744555	-0.11854885501122879	0.5456222659824814	0.015176062897437337	-0.11707369195607664	0.5149360591256976	0.02822963795031641	-0.08733972471183686	0.5141657809334845	-0.021557811324384057	-0.09903594181933152	0.5312165155130809	-0.01685306817134924	-0.10251988242733973	0.5509440409903792	-0.0018951249344106857	-0.099824580651456	0.5283048585271863	0.017418757716686217	-0.07245375332859394	0.6040408765465387	0.006960805144263893	-0.08183462187793061	0.5875892970571275	0.0044273664984989525	-0.07784372963035874	0.5671995818374317	0.001255486051841892	-0.07396936430274412	0.5324286603782044	-0.0058852626650286455	-0.0675759161220865	0.4622830810018609	-0.023011742144276925	-0.051989820119430985
23	0.7999999999999965	0.5450881832141163	-0.015332736913711287	-0.12310748152596389	0.5224154344988732	-0.017409107545611757	-0.12621153543890146	0.49252882990316627	-0.01865782104459579	-0.11760621264790014	0.4753996540511949	-0.02663841808208489	-0.07719839897829583	0.5649834550588423	0.04388675526289021	-0.15588484494762592	0.5515311888552219	0.04792108718962251	-0.14444978045756368	0.5317136841046374	0.04820805447733656	-0.12898388286846973	0.5012832469144687	0.027697672256438044	-0.10737488456757999	0.5103778282373403	-0.008206642786392826	-0.11185062715695517	0.5271657747964411	-0.007298741147131693	-0.11858416745476277	0.5456721953335267	0.015163368695664148	-0.11704287893060111	0.5150168681693646	0.028196020973149327	-0.08726790937440604	0.5141348891947215	-0.021559067532696097	-0.09912819342609414	0.5311962279489891	-0.016886170821715063	-0.10260306842249753	0.5509559981565229	-0.001974981329225911	-0.09988500141365718	0.5283816110133619	0.017302585615373234	-0.07243516914081453	0.6040709923292089	0.0067731987346832945	-0.0818875803671954	0.5876163300693316	0.0042491455129228806	-0.0779034562166339	0.5672236769389523	0.001088269315788537	-0.07403556545157566	0.5324440160996714	-0.00603808877559775	-0.06767367396728152	0.4622830810018609	-0.023011742144276925	-0.051989820119430985
24	0.8333333333333297	0.5451039965353067	-0.015292617066223757	-0.12315503355010643	0.5224255476933458	-0.017312074175444003	-0.126254993405747	0.4925560615742044	-0.01860663425948339	-0.11759716959330832	0.4754177562580082	-0.026596235238686927	-0.07719500669227103	0.5652183130871813	0.04470112705089857	-0.15569161855420116	0.5516610076619014	0.0483752029590766	-0.14425918067653837	0.5317925783457911	0.04828791292995316	-0.12885633256453177	0.5013671974427166	0.02771319383736104	-0.10730144390409628	0.5104027966339344	-0.008164092944235701	-0.1119297533586587	0.5271958640162984	-0.00731471354318991	-0.11865815900371768	0.5457207231847868	0.015127668244529713	-0.11705234379582191	0.5151076185566695	0.02813379119689796	-0.0872223838264248	0.5139490049177652	-0.021537421465173345	-0.09920340078906559	0.5310331384795387	-0.01696623374754258	-0.10270148930905316	0.550891290558595	-0.002179799822926376	-0.10001911222929115	0.528466026800335	0.017141907637913567	-0.07247823351836033	0.6040452263566561	0.006538694721187954	-0.08225397687277211	0.5876006537365688	0.0040390745049021515	-0.07821319351839558	0.567214768859919	0.0009032721100017405	-0.07428961605183287	0.5324515541573638	-0.006217278557219319	-0.06783205360617342	0.4622830810018609	-0.023011742144276925	-0.051989820119430985
25	0.8666666666666629	0.5450609792070268	-0.015217547321695335	-0.12319603484118931	0.5223872999443366	-0.017217201316557906	-0.12634335951358802	0.4925407360769557	-0.018583456822663935	-0.1176177666281511	0.4753735430525534	-0.026553578110353415	-0.07722402144003516	0.5652483280245763	0.04527110644675569	-0.155604203400191	0.5516665097828121	0.048744738644190266	-0.14413824977196496	0.5317855596873079	0.04842741167403031	-0.1287545909128352	0.5013980037010561	0.02772260201980914	-0.10727102993321885	0.5103210643048228	-0.00803122021842817	-0.11194202982707205	0.5270946672243015	-0.007306642132101193	-0.11873329124866891	0.5456996552906175	0.015069341857991803	-0.11712726835738177	0.5151645327267204	0.028077660889871847	-0.08721844278744995	0.5134769557152855	-0.021421140429833563	-0.09912562417982324	0.5305952700906622	-0.017041485952312696	-0.10270080803569759	0.5506752318652858	-0.0025267311090136912	-0.10019142445230866	0.5285275753033415	0.016994786766253434	-0.07256693382062829	0.6039575358281505	0.006083799832444781	-0.08308263525718096	0.5875400302179024	0.003693825501012493	-0.07886914119256325	0.5671799674196966	0.0006214511838044112	-0.0747654382418032	0.5324451540610989	-0.006356163533952741	-0.06800606809407993	0.4622830810018609	-0.023011742144276925	-0.051989820119430985
26	0.8999999999999961	0.5451140300048632	-0.015157492495149527	-0.12295907208040487	0.5224632094478324	-0.017206472070637857	-0.12623657277337524	0.49259065326656204	-0.018548438901899944	-0.11759657785320105	0.4753063605821023	-0.026550699756606955	-0.07725916286895647	0.5651352266510907	0.04511311170190713	-0.15565027437052473	0.5516184552517949	0.048693519837822885	-0.14414038433979703	0.531766872347929	0.048481255088188235	-0.12871704381684274	0.5013785034239197	0.02776020141870772	-0.10725030063198075	0.5100043444428222	-0.0078031989017042225	-0.11191571381250706	0.5267887543773951	-0.007283644160518965	-0.11869904971891167	0.5456088797179995	0.014918638477410151	-0.11719204015376265	0.5151908218292234	0.028050692268496547	-0.0872180708052917	0.5127475807741307	-0.021090419585699016	-0.09863477919978342	0.5299190904520924	-0.017060956189978826	-0.10236340899130489	0.5503237400071731	-0.002950606977466519	-0.10018894339366846	0.5285416598398918	0.016974157976347937	-0.07256168223514295	0.6038827447905322	0.005420073814965454	-0.08395532138771453	0.5874966288837784	0.0031859443392773246	-0.07953900267454507	0.5671592376419717	0.00027933428721038656	-0.07520839596382706	0.5324453153126345	-0.0064122447794146	-0.06806348049141919	0.4622830810018609	-0.023011742144276925	-0.051989820119430985
27	0.9333333333333294	0.5452327509023218	-0.015290189115472419	-0.12236624944322042	0.5226333499923034	-0.017365724308096464	-0.12596614279892338	0.49268799513760364	-0.018588575679718833	-0.11756374093106246	0.4752637789224614	-0.026557943183583288	-0.077280048562111	0.5649743479548682	0.04379354981838324	-0.15584800345446587	0.551636518677812	0.04787849139468192	-0.14429743799236275	0.5318484447978705	0.0482390092425693	-0.12879543837930219	0.5013215588951615	0.02783603656544087	-0.10722082280869824	0.5093442485644422	-0.007470845269197834	-0.11140887356195142	0.5260769721607429	-0.007432597939258989	-0.11833812303007958	0.5453066128315559	0.014439240211579274	-0.11721867424833371	0.515166889776747	0.028090881828129688	-0.08719572142299206	0.5122000985645049	-0.02061821661578922	-0.09728771706741685	0.5293405072738501	-0.017012449165570098	-0.10155442895967584	0.5499839328031678	-0.0031731751243840867	-0.0999721978044803	0.5285019737806458	0.01712990103284351	-0.07238540079742438	0.6038576244448155	0.00479237056471582	-0.08447539688584457	0.5874928669477637	0.00274753352806012	-0.07989136443000311	0.5671693223007893	4.74358207451786e-05	-0.07536643080028027	0.5324651161141595	-0.0063483570590683325	-0.06791020136480724	0.4622830810018608	-0.023011742144276925	-0.051989820119430985
